<svg width="221" height="222" viewBox="0 0 221 222" fill="none" xmlns="http://www.w3.org/2000/svg">
<path d="M98.0271 5.31446C121.215 -1.83437 144.039 -2.216 166.259 6.90406C194.89 18.655 212.015 40.6236 218.627 70.5034C228.146 113.525 207.44 157.18 168.549 177.946C164.154 180.293 161.486 179.798 157.91 176.186C119.837 137.735 81.59 99.4569 43.273 61.2495C40.0642 58.0499 39.8747 55.4802 42.1069 51.7141C55.1616 29.6885 73.2469 13.802 98.0271 5.31446ZM178.63 114.643C174.659 117.779 170.831 120.995 171.415 126.831C171.669 129.375 172.644 131.682 175.465 131.601C180.066 131.469 182.176 127.95 182.88 124.1C183.541 120.487 185.074 115.917 178.63 114.643Z" fill="#F65F5C"/>
<path d="M31.6757 157.163C37.9647 151.094 39.396 144.648 36.2728 136.527C28.702 116.842 26.3745 96.6236 32.1117 75.9414C32.5114 74.5003 32.929 73.0632 33.3877 71.6403C33.4782 71.3597 33.7962 71.1526 33.6162 71.3563C71.8294 109.42 110.063 147.504 148.584 185.874C142.751 188.891 135.871 189.53 129.068 190.209C113.791 191.733 98.9011 189.752 84.4415 184.623C76.6099 181.845 70.2839 183.923 64.5783 189.803C56.111 198.529 47.3639 206.987 38.6383 215.458C31.269 222.613 22.8464 223.472 14.1193 218.005C6.84225 213.446 2.27277 206.768 0.40052 198.496C-0.993119 192.339 1.35793 187.034 5.77943 182.663C14.3112 174.231 22.8731 165.829 31.6757 157.163Z" fill="#2A65DC"/>
<path d="M182.342 113.383C187.826 118.352 188.67 124.352 184.853 129.017C181.519 133.09 174.297 133.991 169.855 130.887C165.363 127.748 164.081 121.453 166.956 116.65C169.816 111.874 175.315 110.601 182.342 113.383Z" fill="#F65F5C"/>
</svg>
