<svg width="797" height="221" viewBox="0 0 797 221" fill="none" xmlns="http://www.w3.org/2000/svg">
<path d="M98.0271 5.31446C121.215 -1.83437 144.039 -2.216 166.259 6.90406C194.89 18.655 212.015 40.6236 218.627 70.5034C228.146 113.525 207.44 157.18 168.549 177.946C164.154 180.293 161.486 179.798 157.91 176.186C119.837 137.735 81.59 99.4569 43.273 61.2495C40.0642 58.0499 39.8747 55.4802 42.1069 51.7141C55.1616 29.6885 73.2469 13.802 98.0271 5.31446ZM178.63 114.643C174.659 117.779 170.831 120.995 171.415 126.831C171.669 129.375 172.644 131.682 175.465 131.601C180.066 131.469 182.176 127.95 182.88 124.1C183.541 120.487 185.074 115.917 178.63 114.643Z" fill="#F65F5C"/>
<path d="M31.6757 156.162C37.9647 150.093 39.396 143.647 36.2728 135.526C28.702 115.841 26.3745 95.6227 32.1117 74.9404C32.5114 73.4993 32.929 72.0623 33.3877 70.6393C33.4782 70.3588 33.7962 70.1516 33.6162 70.3553C71.8294 108.419 110.063 146.503 148.584 184.873C142.751 187.89 135.871 188.529 129.068 189.208C113.791 190.732 98.9011 188.751 84.4415 183.622C76.6099 180.844 70.2839 182.922 64.5783 188.802C56.111 197.528 47.3639 205.986 38.6383 214.457C31.269 221.612 22.8464 222.471 14.1193 217.004C6.84225 212.445 2.27277 205.767 0.40052 197.495C-0.993119 191.338 1.35793 186.033 5.77943 181.662C14.3112 173.23 22.8731 164.828 31.6757 156.162Z" fill="#2A65DC"/>
<path d="M759.451 156.22C740.154 153.786 729.057 139.838 729.822 119.929C730.341 106.414 735.178 95.4922 748.026 89.7298C758.276 85.1324 768.133 86.5577 776.995 93.6931C777.742 94.2944 778.498 94.8842 779.97 96.0493C778.753 88.5983 782.854 88.4522 787.885 88.5964C798.885 88.9117 796.703 87.9367 796.767 97.747C796.88 114.894 796.818 132.042 796.764 149.19C796.707 167.319 784.205 180.689 766.021 182.222C755.883 183.077 746.6 180.642 737.898 175.439C734.533 173.427 733.335 171.366 735.975 167.937C737.895 165.443 739.06 161.911 741.519 160.403C744.728 158.434 746.874 162.693 749.682 163.83C756.073 166.42 762.352 167.703 769.01 164.937C775.717 162.15 779.253 156.466 778.839 148.113C773.171 152.852 767.045 155.846 759.451 156.22ZM757.107 137.896C764.155 140.672 770.076 139.704 774.557 135.132C778.165 131.451 779.173 126.791 779.631 121.936C780.365 114.149 775.923 106.987 768.964 104.59C761.922 102.163 755.049 104.395 751.034 110.41C744.985 119.472 747.365 131.441 757.107 137.896Z" fill="#0F1729"/>
<path d="M447.385 178.221C437.56 173.035 437.073 168.339 445.099 160.804C447.044 158.977 448.342 160.255 449.893 161.227C456.905 165.621 464.234 168.24 472.6 165.372C479.876 162.878 484.266 156.307 483.75 148.382C481.765 148.554 480.629 150.118 479.209 151.147C467.745 159.451 450.92 156.922 442.22 145.282C433.321 133.376 432.097 120.117 437.127 106.487C444.202 87.3171 467.344 80.3716 484.13 95.4999C485.541 95.1135 485.087 93.8832 485.03 93.0572C484.806 89.8164 486.219 88.6155 489.43 88.669C504.387 88.918 501.585 87.0594 501.732 100.644C501.902 116.304 501.964 131.972 501.691 147.629C501.542 156.235 499.625 164.442 493.382 171.049C482.24 182.839 464.711 185.688 447.385 178.221ZM458.232 135.665C468.805 143.277 480.881 139.142 483.684 126.795C484.297 124.096 484.192 121.177 484.055 118.377C483.673 110.536 478.013 104.742 469.811 103.551C463.269 102.601 456.18 106.926 453.961 113.802C451.49 121.457 451.8 128.866 458.232 135.665Z" fill="#0F1729"/>
<path d="M316.63 69.5769C328.2 77.9625 330.51 89.5326 328.189 102.186C325.968 114.286 317.525 120.866 305.992 123.86C300.297 125.339 294.483 125.319 288.657 125.274C280.65 125.212 280.648 125.259 280.633 133.417C280.622 139.241 280.529 145.067 280.644 150.888C280.706 154.011 279.604 155.42 276.311 155.346C257.601 154.928 261.413 158.107 261.228 141.263C260.966 117.304 261.265 93.3396 261.056 69.3798C261.015 64.7507 262.486 63.2611 267.021 63.5132C279.122 64.1859 291.287 62.5627 303.367 64.4828C308.036 65.2248 312.347 66.8366 316.63 69.5769ZM286.145 108.944C290.14 108.842 294.148 108.913 298.127 108.601C306.104 107.977 311.062 102.38 311.063 94.2831C311.063 86.6342 306.037 80.9913 298.259 80.351C293.787 79.9829 289.269 80.1998 284.775 80.0575C281.832 79.9642 280.563 81.198 280.61 84.2039C280.718 91.0328 280.741 97.8664 280.605 104.694C280.537 108.08 282.205 109.125 286.145 108.944Z" fill="#0F1729"/>
<path d="M562.978 66.9891C578.892 73.7296 582.727 87.3071 580.293 102.15C578.121 115.395 565.873 124.581 550.903 125.226C546.75 125.405 542.565 125.542 538.428 125.24C534.149 124.927 532.421 126.248 532.657 130.789C533.002 137.428 532.607 144.102 532.79 150.753C532.886 154.246 531.527 155.288 528.124 155.379C513.253 155.777 513.25 155.87 513.246 140.926C513.24 117.46 513.373 93.9936 513.137 70.5306C513.088 65.6 514.354 63.6686 519.517 63.8923C532.282 64.4452 545.128 63.0649 557.811 65.5377C559.435 65.8544 561.015 66.3986 562.978 66.9891ZM532.754 88.543C532.756 94.2026 532.849 99.8642 532.723 105.521C532.656 108.539 533.87 109.722 536.863 109.604C542.163 109.395 547.486 109.947 552.736 108.579C559.03 106.94 562.904 101.991 563.062 95.0103C563.216 88.2308 559.77 83.3651 553.532 81.4435C549.153 80.0949 544.66 80.2929 540.173 80.3021C532.774 80.3172 532.774 80.3086 532.754 88.543Z" fill="#0F1729"/>
<path d="M631.905 154.729C607.6 162.984 587.012 150.795 583.617 125.872C581.38 109.456 590.794 91.7005 610.473 87.6959C630.42 83.6367 647.94 94.8461 651.79 113.51C655.5 131.498 648.01 147.238 631.905 154.729ZM629.486 136.514C630.557 135.044 631.806 133.67 632.671 132.087C638.267 121.838 634.297 108.372 624.583 104.414C617.159 101.39 608.596 103.908 604.272 110.388C599.062 118.196 599.955 130.066 606.213 136.183C612.306 142.139 621.102 142.448 629.486 136.514Z" fill="#0F1729"/>
<path d="M396.988 87.7248C418.346 85.2561 427.086 101.075 426.796 116.25C426.58 127.571 426.616 138.902 426.819 150.223C426.89 154.158 425.558 155.482 421.646 155.379C406.601 154.986 409.351 157.266 409.104 143.134C408.961 134.975 409.23 126.808 409.019 118.653C408.794 110.007 404.058 104.587 396.887 104.243C388.195 103.826 383.001 108.681 382.827 117.889C382.627 128.544 382.631 139.209 382.835 149.864C382.912 153.869 381.774 155.51 377.515 155.395C362.638 154.995 365.292 157.227 365.146 142.985C364.981 126.832 365.259 110.673 365.016 94.5213C364.946 89.8229 366.624 88.1424 371.099 88.6554C372.578 88.825 374.094 88.6967 375.593 88.6699C379.698 88.5965 384.309 87.8254 382.52 95.5339C387.495 91.6848 391.63 88.9645 396.988 87.7248Z" fill="#0F1729"/>
<path d="M678.689 140.921C678.688 142.418 678.767 143.425 678.67 144.415C678.335 147.828 680.33 152.64 677.521 154.357C673.489 156.821 668.139 155.248 663.351 155.106C661.352 155.047 661.127 153.396 661.126 151.832C661.112 132.013 661.104 112.194 661.145 92.3748C661.147 91.435 661.354 89.8801 661.899 89.6537C666.507 87.7388 671.374 88.7304 676.127 88.8783C679.637 88.9876 678.078 92.4945 679.27 94.6976C684.488 90.747 689.769 87.3597 696.755 87.4838C711.151 87.7394 721.391 97.2474 721.701 111.76C721.979 124.745 721.678 137.742 721.814 150.731C721.851 154.205 720.595 155.428 717.154 155.358C701.651 155.041 704.456 157.27 704.206 142.999C704.061 134.674 704.232 126.343 704.078 118.018C703.918 109.353 698.965 104.251 691.001 104.25C683.146 104.248 678.835 108.986 678.726 117.938C678.635 125.432 678.695 132.928 678.689 140.921Z" fill="#0F1729"/>
<path d="M336.011 102.935C336.011 101.938 336.01 101.438 336.011 100.939C336.042 87.5604 336.038 87.606 349.495 88.6666C351.699 88.8403 352.874 89.4025 352.862 91.8391C352.757 112.473 352.712 133.107 352.629 153.74C352.628 154.032 352.367 154.323 352.019 155.048C346.999 155.474 341.778 155.496 336.012 154.932C336.012 137.61 336.012 120.522 336.011 102.935Z" fill="#0F1729"/>
<path d="M350.88 63.1091C356.364 68.0775 357.209 74.0778 353.391 78.7421C350.057 82.8159 342.835 83.7169 338.394 80.613C333.901 77.4731 332.619 71.1782 335.495 66.3755C338.354 61.6 343.854 60.3267 350.88 63.1091Z" fill="#0F1729"/>
<path d="M182.342 113.384C187.826 118.353 188.67 124.353 184.853 129.017C181.519 133.091 174.297 133.992 169.855 130.888C165.363 127.749 164.081 121.454 166.956 116.651C169.816 111.875 175.315 110.602 182.342 113.384Z" fill="#F65F5C"/>
</svg>
